# xmcd
#
# Track frame offsets:
#	150
#	17917
#	31436
#	48419
#	68118
#	82844
#	99606
#	119564
#	145866
#	168273
#	182013
#
# Disc length: 2630 seconds
#
# Revision: 0
# Processed by: cddbd v1.5.2PL0 Copyright (c) Steve Scherf et al.
# Submitted via: EZCDAudioConverter 2.8.0.1
#
DISCID=8f0a440b
DTITLE=곱창전골 - Menu
DYEAR=2014
DGENRE=blues
TTITLE0=우리는 곱창전골이다!
TTITLE1=새벽의 해장국
TTITLE2=홍어의 눈물
TTITLE3=노가리 트위스트
TTITLE4=티본스테이크 블루스
TTITLE5=건배를 좋아하는 사람들
TTITLE6=슬픈 보신탕
TTITLE7=돌나물로 시작되고 도루묵으로 끝난 사랑의 노래
TTITLE8=묵은지
TTITLE9=감자 프린세스
TTITLE10=비 오는 날은 빈대떡
EXTD=
EXTT0=
EXTT1=
EXTT2=
EXTT3=
EXTT4=
EXTT5=
EXTT6=
EXTT7=
EXTT8=
EXTT9=
EXTT10=
PLAYORDER=
